# Blender 4.5.3 LTS
# www.blender.org
mtllib sipkaTurning.mtl
o obj_0.001
v 25.500000 3.000000 13.003000
v 25.500000 0.000000 13.003000
v 25.500000 0.000000 30.000000
v 25.500000 3.000000 30.000000
v 33.500000 3.000000 30.000000
v 33.500000 0.000000 30.000000
v 25.503000 3.000000 13.003000
v 5.322000 3.000000 1.498000
v 5.322000 0.000000 1.498000
v 30.566000 3.000000 -2.450000
v 30.566000 0.000000 -2.450000
v 29.750000 0.000000 -2.995000
v 29.750000 3.000000 -2.995000
v 7.278000 0.000000 -5.007000
v 33.467300 0.000000 3.000000
v 33.500000 0.000000 3.000000
v 6.828000 0.000000 -4.200000
v 31.302999 3.000000 -1.803000
v 31.302999 0.000000 -1.803000
v 32.929001 3.000000 0.630000
v 32.929001 0.000000 0.630000
v 10.077000 0.000000 -3.986000
v 33.243999 3.000000 1.559000
v 33.243999 0.000000 1.559000
v 33.436001 0.000000 2.521000
v 19.014000 0.000000 -3.995000
v 26.499001 0.000000 -4.005900
v 6.002000 0.000000 -2.715000
v 6.401000 0.000000 -3.432000
v 6.828000 3.000000 -4.200000
v 7.278000 3.000000 -5.007000
v 26.499001 0.000000 -3.967400
v 26.979000 0.000000 -3.936000
v 27.941000 0.000000 -3.744000
v 31.950001 3.000000 -1.066000
v 31.950001 0.000000 -1.066000
v 32.494999 3.000000 -0.250000
v 32.494999 0.000000 -0.250000
v 33.436001 3.000000 2.521000
v 6.002000 3.000000 -2.715000
v 33.500000 3.000000 3.000000
v 33.467300 3.000000 3.000000
v 4.536000 0.000000 -0.058000
v 4.641000 0.000000 -0.252000
v 28.870001 0.000000 -3.429000
v 4.810000 0.000000 -0.560000
v 5.647000 0.000000 2.081000
v 5.036000 0.000000 -0.971000
v 25.503000 0.000000 13.003000
v 5.647000 3.000000 2.081000
v 5.314000 0.000000 -1.474000
v 26.499001 3.000000 -4.005900
v 5.638000 0.000000 -2.059000
v 19.014000 3.000000 -3.995000
v 4.500000 3.000000 0.013000
v 4.500000 0.000000 0.013000
v 4.538000 0.000000 0.084000
v 4.538000 3.000000 0.084000
v 10.064000 0.000000 -10.000000
v 10.072000 0.000000 -6.991000
v 25.503000 0.000000 3.998000
v 25.503000 3.000000 3.998000
v 4.645000 3.000000 0.278000
v 4.645000 0.000000 0.278000
v 4.815000 0.000000 0.585000
v 4.815000 3.000000 0.585000
v 5.043000 0.000000 0.995000
v 5.043000 3.000000 0.995000
v 7.286000 0.000000 5.024000
v 6.837000 0.000000 4.218000
v 26.979000 3.000000 -3.936000
v 26.499001 3.000000 -3.967400
v 6.401000 3.000000 -3.432000
v 27.941000 3.000000 -3.744000
v 6.410000 0.000000 3.453000
v 6.011000 0.000000 2.736000
v 10.064000 0.000000 10.000000
v 10.064000 3.000000 10.000000
v 4.641000 3.000000 -0.252000
v 4.536000 3.000000 -0.058000
v 10.072000 0.000000 7.000000
v 10.072000 3.000000 7.000000
v 5.638000 3.000000 -2.059000
v 10.077000 3.000000 -3.986000
v 10.077000 3.000000 4.003000
v 10.077000 0.000000 4.003000
v 5.314000 3.000000 -1.474000
v 15.498000 0.000000 4.003000
v 15.498000 3.000000 4.003000
v 10.072000 3.000000 -6.991000
v 5.036000 3.000000 -0.971000
v 15.498000 3.000000 3.998000
v 15.498000 0.000000 3.998000
v 10.064000 3.000000 -10.000000
v 4.810000 3.000000 -0.560000
v 6.011000 3.000000 2.736000
v 28.870001 3.000000 -3.429000
v 6.410000 3.000000 3.453000
v 7.286000 3.000000 5.024000
v 6.837000 3.000000 4.218000
vn -1.0000 -0.0000 -0.0000
vn -0.0000 1.0000 -0.0000
vn 0.5554 -0.0000 -0.8316
vn 0.6597 -0.0000 -0.7515
vn 0.9470 -0.0000 -0.3211
vn -0.0000 -1.0000 -0.0000
vn -0.8734 -0.0000 -0.4870
vn 0.7515 -0.0000 -0.6597
vn 0.8316 -0.0000 -0.5554
vn 0.9807 -0.0000 -0.1957
vn -0.0000 -0.0000 -1.0000
vn 0.9979 -0.0000 -0.0652
vn -0.8734 -0.0000 0.4869
vn -0.8735 -0.0000 0.4869
vn -0.0015 -0.0000 -1.0000
vn -0.8817 -0.0000 0.4719
vn -0.8748 -0.0000 0.4844
vn -0.0010 -0.0000 -1.0000
vn -0.8745 -0.0000 0.4851
vn 0.0653 -0.0000 -0.9979
vn -0.8738 -0.0000 -0.4863
vn 0.1957 -0.0000 -0.9807
vn -0.8740 -0.0000 0.4860
vn 0.8969 -0.0000 -0.4423
vn -0.8744 -0.0000 -0.4852
vn -0.8756 -0.0000 0.4830
vn -0.0000 -0.0000 1.0000
vn -0.8740 -0.0000 -0.4859
vn -0.8795 -0.0000 -0.4760
vn -0.8794 -0.0000 -0.4760
vn 1.0000 -0.0000 0.0027
vn 1.0000 -0.0000 0.0017
vn -0.8748 -0.0000 -0.4845
vn 1.0000 -0.0000 -0.0017
vn -0.8752 -0.0000 -0.4837
vn -0.8763 -0.0000 -0.4818
vn 1.0000 -0.0000 -0.0027
vn 0.3211 -0.0000 -0.9470
vn 1.0000 -0.0000 -0.0000
vn -0.8767 -0.0000 -0.4810
vn -0.8919 -0.0000 -0.4522
vn -0.8733 -0.0000 -0.4873
vn -0.8741 -0.0000 0.4858
vn -0.8738 -0.0000 0.4863
vn 0.4423 -0.0000 -0.8969
vn -0.8731 -0.0000 0.4875
vn -0.8736 -0.0000 0.4867
vn -0.8732 -0.0000 0.4874
s 0
usemtl color_40919
f 1//1 2//1 3//1
f 1//1 3//1 4//1
f 4//2 7//2 1//2
f 10//3 11//3 12//3
f 10//3 12//3 13//3
f 18//4 19//4 11//4
f 18//4 11//4 10//4
f 23//5 24//5 21//5
f 23//5 21//5 20//5
f 16//6 6//6 15//6
f 29//6 17//6 22//6
f 14//7 17//7 30//7
f 14//7 30//7 31//7
f 4//2 5//2 7//2
f 18//8 35//8 36//8
f 18//8 36//8 19//8
f 34//6 61//6 33//6
f 35//9 37//9 38//9
f 35//9 38//9 36//9
f 27//6 32//6 26//6
f 32//6 61//6 26//6
f 39//10 25//10 24//10
f 39//10 24//10 23//10
f 41//11 16//11 15//11
f 41//11 15//11 42//11
f 42//12 15//12 25//12
f 42//12 25//12 39//12
f 47//13 50//13 9//13
f 8//14 9//14 50//14
f 38//6 61//6 36//6
f 12//6 11//6 61//6
f 19//6 61//6 11//6
f 36//6 61//6 19//6
f 2//6 49//6 3//6
f 52//15 27//15 26//15
f 52//15 26//15 54//15
f 7//1 62//1 61//1
f 55//16 56//16 57//16
f 55//16 57//16 58//16
f 45//6 12//6 61//6
f 24//6 25//6 61//6
f 46//6 48//6 22//6
f 48//6 51//6 22//6
f 51//6 53//6 22//6
f 53//6 28//6 22//6
f 28//6 29//6 22//6
f 17//6 14//6 22//6
f 60//6 22//6 14//6
f 59//6 60//6 14//6
f 22//6 64//6 46//6
f 44//6 46//6 64//6
f 63//17 64//17 65//17
f 63//17 65//17 66//17
f 6//6 3//6 49//6
f 22//18 84//18 26//18
f 54//18 26//18 84//18
f 67//19 9//19 8//19
f 67//19 8//19 68//19
f 71//20 33//20 32//20
f 71//20 32//20 72//20
f 32//6 33//6 61//6
f 45//6 61//6 34//6
f 29//21 28//21 40//21
f 29//21 40//21 73//21
f 74//22 34//22 33//22
f 74//22 33//22 71//22
f 76//6 22//6 75//6
f 47//6 22//6 76//6
f 65//23 67//23 68//23
f 65//23 68//23 66//23
f 21//24 38//24 20//24
f 37//24 20//24 38//24
f 28//25 53//25 40//25
f 57//26 64//26 63//26
f 57//26 63//26 58//26
f 6//27 5//27 3//27
f 4//27 3//27 5//27
f 21//6 61//6 38//6
f 24//6 61//6 21//6
f 17//28 29//28 73//28
f 17//28 73//28 30//28
f 7//11 49//11 2//11
f 7//11 2//11 1//11
f 79//29 44//29 43//29
f 79//30 43//30 80//30
f 81//31 82//31 78//31
f 81//31 78//31 77//31
f 49//1 7//1 61//1
f 53//25 83//25 40//25
f 85//32 82//32 81//32
f 85//32 81//32 86//32
f 49//6 15//6 6//6
f 53//33 51//33 87//33
f 53//33 87//33 83//33
f 5//2 42//2 7//2
f 84//34 22//34 60//34
f 84//34 60//34 90//34
f 85//27 86//27 89//27
f 88//27 89//27 86//27
f 62//2 7//2 42//2
f 37//2 35//2 62//2
f 51//35 48//35 91//35
f 51//35 91//35 87//35
f 61//6 15//6 49//6
f 25//6 15//6 61//6
f 81//6 69//6 86//6
f 77//6 69//6 81//6
f 70//6 86//6 69//6
f 92//27 93//27 61//27
f 92//27 61//27 62//27
f 48//36 46//36 95//36
f 48//36 95//36 91//36
f 60//37 59//37 94//37
f 60//37 94//37 90//37
f 74//38 45//38 34//38
f 61//6 93//6 26//6
f 16//39 5//39 6//39
f 88//39 93//39 92//39
f 88//39 92//39 89//39
f 46//40 44//40 79//40
f 46//40 79//40 95//40
f 43//41 56//41 55//41
f 43//41 55//41 80//41
f 27//39 52//39 32//39
f 72//39 32//39 52//39
f 59//42 14//42 31//42
f 59//42 31//42 94//42
f 47//43 76//43 96//43
f 47//43 96//43 50//43
f 43//6 44//6 57//6
f 57//6 44//6 64//6
f 56//6 43//6 57//6
f 65//6 64//6 22//6
f 9//6 67//6 22//6
f 67//6 65//6 22//6
f 86//6 22//6 93//6
f 26//6 93//6 22//6
f 88//6 86//6 93//6
f 86//6 75//6 22//6
f 70//6 75//6 86//6
f 9//6 22//6 47//6
f 97//38 45//38 74//38
f 41//2 42//2 5//2
f 76//44 75//44 98//44
f 76//44 98//44 96//44
f 13//45 12//45 45//45
f 13//45 45//45 97//45
f 77//46 78//46 69//46
f 99//46 69//46 78//46
f 23//2 20//2 62//2
f 20//2 37//2 62//2
f 39//2 23//2 62//2
f 42//2 39//2 62//2
f 70//47 69//47 99//47
f 70//47 99//47 100//47
f 54//2 62//2 72//2
f 71//2 72//2 62//2
f 75//48 70//48 100//48
f 75//48 100//48 98//48
f 54//2 72//2 52//2
f 84//2 92//2 54//2
f 73//2 84//2 30//2
f 31//2 30//2 84//2
f 83//2 92//2 40//2
f 40//2 92//2 73//2
f 87//2 92//2 83//2
f 91//2 92//2 87//2
f 95//2 92//2 91//2
f 79//2 92//2 95//2
f 80//2 92//2 79//2
f 84//2 90//2 31//2
f 94//2 31//2 90//2
f 18//2 10//2 62//2
f 10//2 13//2 62//2
f 13//2 97//2 62//2
f 74//2 62//2 97//2
f 71//2 62//2 74//2
f 35//2 18//2 62//2
f 82//2 85//2 99//2
f 100//2 85//2 98//2
f 98//2 85//2 96//2
f 100//2 99//2 85//2
f 78//2 82//2 99//2
f 62//2 54//2 92//2
f 84//2 73//2 92//2
f 55//2 58//2 80//2
f 92//2 80//2 58//2
f 58//2 63//2 92//2
f 63//2 66//2 92//2
f 66//2 68//2 92//2
f 68//2 85//2 92//2
f 8//2 85//2 68//2
f 50//2 85//2 8//2
f 96//2 85//2 50//2
f 89//2 92//2 85//2
f 16//39 41//39 5//39
