# Blender 4.5.3 LTS
# www.blender.org
mtllib sipkaTurnAround.mtl
o obj_0
v 3.865669 0.000000 21.423000
v 3.865669 3.000000 21.423000
v 8.370668 3.000000 24.222000
v 8.370668 0.000000 24.222000
v 10.867670 0.000000 21.436001
v 10.867670 3.000000 21.436001
v 5.993670 0.000000 26.858999
v 5.993670 3.000000 26.858999
v 5.896669 3.000000 26.964001
v 5.896669 0.000000 26.964001
v 5.861670 3.000000 27.000000
v 5.861670 0.000000 27.000000
v 5.825670 3.000000 26.962000
v 5.825670 0.000000 26.962000
v 5.728670 0.000000 26.855000
v 5.728670 3.000000 26.855000
v 7.967669 3.000000 24.672001
v 7.967669 0.000000 24.672001
v 7.583670 3.000000 25.099001
v 7.225672 3.000000 25.497999
v 7.225672 0.000000 25.497999
v 7.583670 0.000000 25.099001
v 6.896669 3.000000 25.862000
v 6.604670 3.000000 26.186001
v 6.604670 0.000000 26.186001
v 6.896669 0.000000 25.862000
v 6.352671 3.000000 26.464001
v 6.352671 0.000000 26.464001
v 6.147669 3.000000 26.690001
v 6.147669 0.000000 26.690001
v 5.118670 0.000000 26.177999
v 5.118670 3.000000 26.177999
v 4.826670 3.000000 25.853001
v 4.826670 0.000000 25.853001
v 4.499670 3.000000 25.489000
v 4.499670 0.000000 25.489000
v 4.141670 3.000000 25.090000
v 4.141670 0.000000 25.090000
v 3.758671 0.000000 24.663000
v 3.758671 3.000000 24.663000
v 5.574671 3.000000 26.684999
v 5.574671 0.000000 26.684999
v 5.369669 0.000000 26.457001
v 5.369669 3.000000 26.457001
v -7.132330 0.000000 27.000000
v -7.132330 3.000000 27.000000
v -7.132330 3.000000 5.000000
v -7.132330 0.000000 5.000000
v -2.132330 3.000000 27.000000
v -2.132330 0.000000 27.000000
v -2.132330 0.000000 19.003000
v -2.132330 3.000000 19.003000
v -2.134331 3.000000 19.003000
v -2.134331 0.000000 19.003000
v -4.935329 0.000000 -0.657000
v -4.198330 0.000000 -1.347000
v -3.382330 0.000000 -1.928000
v -2.502331 0.000000 -2.391000
v -1.573330 0.000000 -2.727000
v -0.611330 0.000000 -2.932000
v 0.367670 0.000000 -3.000000
v -2.109329 0.000000 6.782000
v -2.116831 0.000000 6.998000
v -2.032330 0.000000 6.076000
v -2.134331 0.000000 6.998000
v -1.906330 0.000000 5.394000
v -1.732330 0.000000 4.749000
v -1.514330 0.000000 4.150000
v -1.255329 0.000000 3.609000
v -0.960329 0.000000 3.135000
v -0.633329 0.000000 2.735000
v -0.281330 0.000000 2.416000
v 0.090670 0.000000 2.185000
v 0.475670 0.000000 2.045000
v 0.867670 0.000000 1.998000
v -7.068331 0.000000 3.956000
v -6.876329 0.000000 2.929000
v -6.561331 0.000000 1.939000
v -6.127331 0.000000 1.000000
v -5.582331 0.000000 0.130000
v -2.502331 3.000000 -2.391000
v -1.573330 3.000000 -2.727000
v -3.382330 3.000000 -1.928000
v -4.198330 3.000000 -1.347000
v -4.935329 3.000000 -0.657000
v -5.582331 3.000000 0.130000
v -6.127331 3.000000 1.000000
v -6.561331 3.000000 1.939000
v -6.876329 3.000000 2.929000
v -7.068331 3.000000 3.956000
v 0.367670 3.000000 -3.000000
v -0.611330 3.000000 -2.932000
v -2.109329 3.000000 6.782000
v -2.116831 3.000000 6.998000
v -2.134331 3.000000 6.998000
v -2.032330 3.000000 6.076000
v -1.906330 3.000000 5.394000
v -1.732330 3.000000 4.749000
v -1.514330 3.000000 4.150000
v -1.255329 3.000000 3.609000
v -0.960329 3.000000 3.135000
v -0.633329 3.000000 2.735000
v -0.281330 3.000000 2.416000
v 0.090670 3.000000 2.185000
v 0.475670 3.000000 2.045000
v 0.867670 3.000000 1.998000
v 1.346670 3.000000 -2.932000
v 3.237671 3.000000 -2.391000
v 2.308670 3.000000 -2.727000
v 3.237671 0.000000 -2.391000
v 2.308670 0.000000 -2.727000
v 1.346670 0.000000 -2.932000
v 5.670671 3.000000 -0.657000
v 4.933672 3.000000 -1.347000
v 4.117670 3.000000 -1.928000
v 7.864672 3.000000 12.486000
v 7.870569 3.000000 5.001000
v 3.249670 3.000000 4.150000
v 3.467670 3.000000 4.749000
v 3.641670 3.000000 5.394000
v 3.767670 3.000000 6.076000
v 3.844669 3.000000 6.782000
v 3.852470 3.000000 6.998000
v 2.990669 3.000000 3.609000
v 7.867571 3.000000 5.001000
v 7.867670 3.000000 5.000000
v 7.803671 3.000000 3.956000
v 3.870670 3.000000 6.998000
v 7.611670 3.000000 2.929000
v 7.296671 3.000000 1.939000
v 6.862669 3.000000 1.000000
v 6.317671 3.000000 0.130000
v 1.259670 3.000000 2.045000
v 1.644670 3.000000 2.185000
v 2.016670 3.000000 2.416000
v 2.368670 3.000000 2.735000
v 2.695669 3.000000 3.135000
v 7.867571 0.000000 5.001000
v 7.867670 0.000000 5.000000
v 7.803671 0.000000 3.956000
v 3.870670 0.000000 6.998000
v 7.611670 0.000000 2.929000
v 7.296671 0.000000 1.939000
v 6.862669 0.000000 1.000000
v 6.317671 0.000000 0.130000
v 1.259670 0.000000 2.045000
v 1.644670 0.000000 2.185000
v 2.016670 0.000000 2.416000
v 2.368670 0.000000 2.735000
v 2.695669 0.000000 3.135000
v 7.860670 3.000000 21.423000
v 7.860670 0.000000 21.423000
v 3.865669 3.000000 19.003000
v 3.865669 0.000000 19.003000
v 3.870670 3.000000 19.003000
v 3.870670 0.000000 19.003000
v 9.362669 3.000000 21.427999
v 9.362669 0.000000 21.427999
v 0.867670 3.000000 21.436001
v 0.867670 0.000000 21.436001
v 3.355671 0.000000 24.214001
v 3.355671 3.000000 24.214001
v 2.367670 3.000000 21.427999
v 2.367670 0.000000 21.427999
v 5.670671 0.000000 -0.657000
v 4.933672 0.000000 -1.347000
v 4.117670 0.000000 -1.928000
v 7.870569 0.000000 5.001000
v 7.864672 0.000000 12.486000
v 3.249670 0.000000 4.150000
v 3.467670 0.000000 4.749000
v 3.641670 0.000000 5.394000
v 3.767670 0.000000 6.076000
v 3.844669 0.000000 6.782000
v 3.852470 0.000000 6.998000
v 2.990669 0.000000 3.609000
vn 0.7447 -0.0000 0.6674
vn 0.7345 -0.0000 0.6786
vn 0.7170 -0.0000 0.6971
vn -0.7260 -0.0000 0.6877
vn -0.7259 -0.0000 0.6877
vn -0.7409 -0.0000 0.6716
vn 0.7449 -0.0000 0.6671
vn 0.7443 -0.0000 0.6678
vn 0.7436 -0.0000 0.6687
vn 0.7428 -0.0000 0.6695
vn 0.7409 -0.0000 0.6716
vn 0.7419 -0.0000 0.6705
vn 0.7407 -0.0000 0.6719
vn 0.7392 -0.0000 0.6735
vn 0.7391 -0.0000 0.6736
vn -0.7439 -0.0000 0.6683
vn -0.7443 -0.0000 0.6678
vn -0.7442 -0.0000 0.6680
vn -0.7444 -0.0000 0.6677
vn -0.7411 -0.0000 0.6714
vn -0.7434 -0.0000 0.6688
vn -0.7436 -0.0000 0.6686
vn -1.0000 -0.0000 -0.0000
vn 1.0000 -0.0000 -0.0000
vn -0.0000 1.0000 -0.0000
vn -0.0000 -1.0000 -0.0000
vn -0.0000 -0.0000 1.0000
vn -0.0000 -0.0000 -1.0000
vn -0.3401 -0.0000 -0.9404
vn -0.4656 -0.0000 -0.8850
vn -0.5800 -0.0000 -0.8146
vn -0.6834 -0.0000 -0.7300
vn -0.7725 -0.0000 -0.6351
vn -0.8475 -0.0000 -0.5309
vn -0.9077 -0.0000 -0.4195
vn -0.9077 -0.0000 -0.4196
vn -0.9529 -0.0000 -0.3032
vn -0.9830 -0.0000 -0.1838
vn -0.9981 -0.0000 -0.0612
vn 0.9994 -0.0000 0.0347
vn 0.9941 -0.0000 0.1084
vn 0.9834 -0.0000 0.1817
vn 0.9655 -0.0000 0.2605
vn 0.9397 -0.0000 0.3420
vn 0.9020 -0.0000 0.4318
vn 0.8490 -0.0000 0.5284
vn 0.7742 -0.0000 0.6329
vn 0.6715 -0.0000 0.7410
vn -0.0693 -0.0000 -0.9976
vn -0.2084 -0.0000 -0.9780
vn 0.5275 -0.0000 0.8495
vn 0.3417 -0.0000 0.9398
vn 0.1190 -0.0000 0.9929
vn 0.3401 -0.0000 -0.9404
vn 0.2084 -0.0000 -0.9780
vn 0.0693 -0.0000 -0.9976
vn 0.9954 -0.0000 0.0962
vn 0.9949 -0.0000 0.1012
vn 0.9981 -0.0000 -0.0612
vn 0.9830 -0.0000 -0.1838
vn 0.9529 -0.0000 -0.3032
vn 0.9077 -0.0000 -0.4195
vn 0.9077 -0.0000 -0.4196
vn 0.8475 -0.0000 -0.5309
vn 0.8474 -0.0000 -0.5309
vn 0.7725 -0.0000 -0.6351
vn -0.1190 -0.0000 0.9929
vn -0.3417 -0.0000 0.9398
vn -0.5275 -0.0000 0.8495
vn -0.6715 -0.0000 0.7410
vn -0.7742 -0.0000 0.6329
vn 0.0033 -0.0000 -1.0000
vn 0.0053 -0.0000 -1.0000
vn -0.7449 -0.0000 0.6672
vn -0.0053 -0.0000 -1.0000
vn -0.0033 -0.0000 -1.0000
vn 0.6834 -0.0000 -0.7300
vn 0.5800 -0.0000 -0.8146
vn 0.4656 -0.0000 -0.8850
vn 1.0000 -0.0000 0.0008
vn 1.0000 -0.0000 0.0004
vn -0.9020 -0.0000 0.4318
vn -0.9397 -0.0000 0.3420
vn -0.9655 -0.0000 0.2605
vn -0.9834 -0.0000 0.1817
vn -0.9941 -0.0000 0.1084
vn -0.9993 -0.0000 0.0361
vn -0.8490 -0.0000 0.5284
s 0
usemtl color_40919.001
f 3//1 4//1 5//1
f 3//1 5//1 6//1
f 7//2 8//2 9//2
f 7//2 9//2 10//2
f 9//3 11//3 12//3
f 9//3 12//3 10//3
f 13//4 14//4 12//4
f 13//5 12//5 11//5
f 15//6 14//6 13//6
f 15//6 13//6 16//6
f 18//7 4//7 17//7
f 3//7 17//7 4//7
f 19//8 20//8 21//8
f 19//8 21//8 22//8
f 17//9 19//9 22//9
f 17//9 22//9 18//9
f 23//10 24//10 25//10
f 23//10 25//10 26//10
f 24//11 27//11 28//11
f 24//11 28//11 25//11
f 26//12 21//12 23//12
f 20//12 23//12 21//12
f 30//13 28//13 29//13
f 27//13 29//13 28//13
f 29//14 8//14 7//14
f 29//15 7//15 30//15
f 31//16 32//16 34//16
f 33//16 34//16 32//16
f 35//16 36//16 34//16
f 35//16 34//16 33//16
f 37//17 38//17 36//17
f 37//17 36//17 35//17
f 39//18 40//18 162//18
f 40//19 39//19 38//19
f 40//19 38//19 37//19
f 15//20 16//20 42//20
f 41//20 42//20 16//20
f 31//21 43//21 44//21
f 31//21 44//21 32//21
f 44//22 43//22 42//22
f 44//22 42//22 41//22
f 48//23 46//23 47//23
f 46//23 48//23 45//23
f 49//24 50//24 51//24
f 49//24 51//24 52//24
f 52//25 53//25 49//25
f 49//25 53//25 46//25
f 50//26 54//26 51//26
f 50//26 45//26 54//26
f 46//27 45//27 50//27
f 46//27 50//27 49//27
f 52//28 51//28 54//28
f 52//28 54//28 53//28
f 59//26 73//26 58//26
f 60//26 74//26 59//26
f 61//26 74//26 60//26
f 73//26 72//26 58//26
f 57//26 58//26 72//26
f 63//26 65//26 62//26
f 65//26 48//26 62//26
f 64//26 48//26 66//26
f 76//26 77//26 67//26
f 68//26 67//26 77//26
f 55//26 56//26 71//26
f 73//26 59//26 74//26
f 75//26 74//26 61//26
f 79//26 80//26 69//26
f 80//26 55//26 70//26
f 71//26 70//26 55//26
f 72//26 71//26 56//26
f 56//26 57//26 72//26
f 78//26 79//26 69//26
f 70//26 69//26 80//26
f 69//26 68//26 78//26
f 77//26 78//26 68//26
f 67//26 66//26 76//26
f 48//26 76//26 66//26
f 64//26 62//26 48//26
f 65//26 54//26 48//26
f 59//29 58//29 81//29
f 59//29 81//29 82//29
f 58//30 57//30 83//30
f 58//30 83//30 81//30
f 57//31 56//31 84//31
f 57//31 84//31 83//31
f 56//32 55//32 85//32
f 56//32 85//32 84//32
f 86//33 85//33 80//33
f 55//33 80//33 85//33
f 80//34 79//34 87//34
f 80//34 87//34 86//34
f 79//35 78//35 88//35
f 79//36 88//36 87//36
f 45//26 48//26 54//26
f 78//37 77//37 89//37
f 78//37 89//37 88//37
f 77//38 76//38 90//38
f 77//38 90//38 89//38
f 76//39 48//39 47//39
f 76//39 47//39 90//39
f 104//25 105//25 82//25
f 81//25 104//25 82//25
f 83//25 103//25 81//25
f 84//25 103//25 83//25
f 92//25 82//25 105//25
f 62//40 93//40 94//40
f 62//40 94//40 63//40
f 95//25 94//25 93//25
f 88//25 89//25 99//25
f 64//41 96//41 93//41
f 64//41 93//41 62//41
f 99//25 100//25 88//25
f 98//25 99//25 89//25
f 87//25 88//25 100//25
f 63//27 94//27 65//27
f 95//27 65//27 94//27
f 86//25 87//25 100//25
f 66//42 97//42 96//42
f 66//42 96//42 64//42
f 67//43 98//43 97//43
f 67//43 97//43 66//43
f 68//44 99//44 98//44
f 68//44 98//44 67//44
f 100//25 101//25 86//25
f 68//45 100//45 99//45
f 69//45 100//45 68//45
f 104//25 81//25 103//25
f 85//25 86//25 101//25
f 70//46 101//46 100//46
f 70//46 100//46 69//46
f 91//25 92//25 105//25
f 71//47 102//47 101//47
f 71//47 101//47 70//47
f 106//25 91//25 105//25
f 103//25 84//25 102//25
f 72//48 103//48 102//48
f 72//48 102//48 71//48
f 102//25 85//25 101//25
f 85//25 102//25 84//25
f 89//25 90//25 98//25
f 97//25 98//25 90//25
f 90//25 47//25 97//25
f 96//25 97//25 47//25
f 93//25 96//25 47//25
f 95//25 93//25 47//25
f 46//25 53//25 47//25
f 95//25 47//25 53//25
f 61//49 60//49 92//49
f 61//49 92//49 91//49
f 60//50 59//50 82//50
f 60//50 82//50 92//50
f 73//51 104//51 103//51
f 73//51 103//51 72//51
f 74//52 105//52 104//52
f 74//52 104//52 73//52
f 105//53 74//53 75//53
f 105//53 75//53 106//53
f 95//24 53//24 65//24
f 65//24 53//24 54//24
f 30//26 7//26 15//26
f 26//26 25//26 31//26
f 43//26 31//26 25//26
f 42//26 43//26 28//26
f 25//26 28//26 43//26
f 28//26 30//26 42//26
f 15//26 42//26 30//26
f 14//26 15//26 7//26
f 7//26 10//26 14//26
f 12//26 14//26 10//26
f 31//26 34//26 26//26
f 21//26 26//26 34//26
f 22//26 21//26 34//26
f 36//26 152//26 34//26
f 38//26 152//26 36//26
f 39//26 152//26 38//26
f 106//25 133//25 107//25
f 91//25 106//25 107//25
f 110//54 111//54 109//54
f 110//54 109//54 108//54
f 111//55 112//55 107//55
f 111//55 107//55 109//55
f 112//56 61//56 91//56
f 112//56 91//56 107//56
f 109//25 107//25 133//25
f 133//25 134//25 108//25
f 108//25 109//25 133//25
f 120//25 127//25 119//25
f 119//25 129//25 118//25
f 122//25 125//25 121//25
f 118//25 130//25 124//25
f 121//25 125//25 120//25
f 123//25 128//25 122//25
f 116//25 125//25 128//25
f 117//25 125//25 116//25
f 122//25 128//25 125//25
f 126//25 120//25 125//25
f 128//25 155//25 116//25
f 114//25 135//25 113//25
f 113//25 136//25 132//25
f 130//25 118//25 129//25
f 137//25 132//25 136//25
f 137//25 124//25 131//25
f 125//57 138//57 139//57
f 125//58 139//58 126//58
f 140//59 127//59 126//59
f 140//59 126//59 139//59
f 140//60 129//60 127//60
f 117//28 138//28 125//28
f 175//27 141//27 128//27
f 175//27 128//27 123//27
f 128//23 141//23 156//23
f 142//60 129//60 140//60
f 143//61 130//61 129//61
f 143//61 129//61 142//61
f 144//62 131//62 130//62
f 144//63 130//63 143//63
f 145//64 132//64 131//64
f 145//65 131//65 144//65
f 113//66 132//66 145//66
f 146//67 133//67 106//67
f 146//67 106//67 75//67
f 147//68 134//68 133//68
f 147//68 133//68 146//68
f 148//69 135//69 134//69
f 148//69 134//69 147//69
f 149//70 136//70 135//70
f 149//70 135//70 148//70
f 136//71 149//71 150//71
f 136//71 150//71 137//71
f 155//28 156//28 154//28
f 155//28 154//28 153//28
f 128//23 156//23 155//23
f 157//72 158//72 152//72
f 157//72 152//72 151//72
f 6//73 5//73 158//73
f 6//73 158//73 157//73
f 159//74 160//74 161//74
f 159//74 161//74 162//74
f 163//75 164//75 160//75
f 163//75 160//75 159//75
f 1//76 164//76 163//76
f 1//76 163//76 2//76
f 161//18 39//18 162//18
f 2//23 153//23 1//23
f 154//23 1//23 153//23
f 130//25 131//25 124//25
f 136//25 113//25 135//25
f 115//25 108//25 134//25
f 114//25 115//25 135//25
f 134//25 135//25 115//25
f 131//25 132//25 137//25
f 127//25 129//25 119//25
f 127//25 120//25 126//25
f 151//25 116//25 155//25
f 153//25 2//25 155//25
f 159//25 162//25 163//25
f 2//25 163//25 162//25
f 2//25 162//25 40//25
f 6//25 157//25 3//25
f 157//25 151//25 3//25
f 155//25 2//25 151//25
f 3//25 151//25 2//25
f 19//25 17//25 2//25
f 19//25 2//25 20//25
f 23//25 2//25 37//25
f 11//25 9//25 13//25
f 9//25 8//25 13//25
f 16//25 13//25 8//25
f 16//25 8//25 29//25
f 35//25 33//25 23//25
f 37//25 35//25 23//25
f 20//25 2//25 23//25
f 3//25 2//25 17//25
f 27//25 24//25 44//25
f 32//25 44//25 24//25
f 44//25 41//25 27//25
f 29//25 27//25 41//25
f 16//25 29//25 41//25
f 24//25 23//25 32//25
f 40//25 37//25 2//25
f 33//25 32//25 23//25
f 145//66 165//66 113//66
f 165//77 166//77 114//77
f 165//77 114//77 113//77
f 166//78 167//78 115//78
f 166//78 115//78 114//78
f 108//79 115//79 110//79
f 167//79 110//79 115//79
f 168//80 117//80 116//80
f 168//80 116//80 169//80
f 168//28 138//28 117//28
f 152//81 169//81 151//81
f 116//81 151//81 169//81
f 118//82 176//82 170//82
f 118//83 170//83 171//83
f 118//83 171//83 119//83
f 119//84 171//84 172//84
f 119//84 172//84 120//84
f 120//85 172//85 173//85
f 120//85 173//85 121//85
f 121//86 173//86 174//86
f 121//86 174//86 122//86
f 122//87 174//87 175//87
f 122//87 175//87 123//87
f 124//88 137//88 176//88
f 150//88 176//88 137//88
f 124//82 176//82 118//82
f 111//26 110//26 146//26
f 147//26 146//26 110//26
f 167//26 147//26 110//26
f 166//26 148//26 167//26
f 138//26 168//26 169//26
f 172//26 138//26 173//26
f 174//26 173//26 138//26
f 150//26 149//26 145//26
f 144//26 143//26 176//26
f 138//26 172//26 139//26
f 171//26 170//26 142//26
f 142//26 140//26 171//26
f 175//26 174//26 141//26
f 138//26 169//26 141//26
f 141//26 174//26 138//26
f 156//26 141//26 169//26
f 169//26 152//26 156//26
f 170//26 176//26 143//26
f 172//26 171//26 140//26
f 139//26 172//26 140//26
f 147//26 167//26 148//26
f 149//26 148//26 165//26
f 165//26 145//26 149//26
f 176//26 150//26 144//26
f 145//26 144//26 150//26
f 165//26 148//26 166//26
f 112//26 111//26 146//26
f 146//26 75//26 112//26
f 61//26 112//26 75//26
f 143//26 142//26 170//26
f 154//26 156//26 1//26
f 1//26 156//26 152//26
f 1//26 152//26 161//26
f 164//26 1//26 161//26
f 160//26 164//26 161//26
f 39//26 161//26 152//26
f 158//26 4//26 152//26
f 5//26 4//26 158//26
f 4//26 18//26 152//26
f 18//26 22//26 152//26
f 152//26 22//26 34//26
