# Blender 4.5.3 LTS
# www.blender.org
mtllib sipkaRovne.mtl
o obj_0
v 26.611000 2.594000 -0.000000
v 25.296000 4.103000 -0.000000
v 25.976000 3.323000 -0.000000
v 28.148001 0.821000 -0.000000
v 28.497999 -0.761000 0.000000
v 27.705000 1.332000 -0.000000
v 20.127001 3.886000 -0.000000
v 20.149000 10.000000 2.999999
v 20.136000 6.941000 3.000000
v 20.127001 3.886000 3.000000
v 28.775000 0.090000 3.000000
v 28.507000 0.404000 3.000000
v 27.705000 1.332000 3.000000
v 27.190001 1.927000 3.000000
v 20.149000 -10.332000 0.000001
v 25.296000 4.103000 3.000000
v 24.580999 4.924000 3.000000
v 20.136000 6.941000 -0.000001
v 20.149000 10.000000 -0.000001
v 20.136000 -7.282000 0.000001
v 24.580999 4.924000 -0.000000
v 20.127001 -4.236000 0.000000
v 28.136999 -1.178000 3.000000
v 27.190001 1.927000 -0.000000
v 27.691999 -1.689000 3.000000
v 28.943001 -0.107000 0.000000
v 28.507000 0.404000 -0.000000
v 29.000000 -0.179000 0.000000
v 28.775000 0.090000 -0.000000
v 28.938999 -0.251000 0.000000
v 28.768999 -0.448000 0.000000
v 25.283001 -4.454000 3.000000
v 28.136999 -1.178000 0.000000
v 28.148001 0.821000 3.000000
v 27.691999 -1.689000 0.000000
v 5.909000 3.895000 -0.000000
v 27.176001 -2.282000 0.000000
v 5.909000 3.895000 3.000000
v 26.596001 -2.948000 0.000000
v 25.961000 -3.676000 0.000000
v 25.283001 -4.454000 0.000000
v 24.568001 -5.273000 0.000000
v -5.999000 3.905900 3.000000
v 27.176001 -2.282000 3.000000
v -5.999000 -4.236000 3.000000
v 25.961000 -3.676000 3.000000
v -5.999000 3.905900 -0.000000
v 25.976000 3.323000 3.000000
v -5.999000 -4.236000 0.000000
v 26.611000 2.594000 3.000000
v 20.127001 -4.236000 3.000000
v 28.497999 -0.761000 3.000000
v 28.938999 -0.251000 3.000000
v 29.000000 -0.179000 3.000000
v 28.943001 -0.107000 3.000000
v 20.136000 -7.282000 3.000000
v 20.149000 -10.332000 3.000001
v 24.568001 -5.273000 3.000000
v 26.596001 -2.948000 3.000000
v 28.768999 -0.448000 3.000000
vn -0.0000 -0.0000 -1.0000
vn -0.0000 -0.0000 1.0000
vn 0.7541 -0.6567 -0.0000
vn 0.0006 1.0000 -0.0000
vn 0.7560 -0.6545 -0.0000
vn 0.7544 -0.6564 -0.0000
vn 0.7539 -0.6570 -0.0000
vn 0.7533 0.6577 -0.0000
vn 0.7538 0.6571 -0.0000
vn 0.0009 1.0000 -0.0000
vn 0.7540 0.6568 -0.0000
vn 0.7541 0.6568 -0.0000
vn 0.7552 0.6555 -0.0000
vn -1.0000 -0.0000 -0.0000
vn 0.7541 0.6567 -0.0000
vn 0.7556 0.6550 -0.0000
vn -0.0000 -1.0000 -0.0000
vn 0.7578 0.6524 -0.0000
vn -1.0000 -0.0043 -0.0000
vn 0.7561 0.6544 -0.0000
vn 0.7606 0.6492 -0.0000
vn -1.0000 -0.0030 -0.0000
vn 0.7609 0.6489 -0.0000
vn 0.7533 -0.6577 -0.0000
vn -1.0000 0.0029 -0.0000
vn 0.7536 -0.6573 -0.0000
vn 0.7841 0.6207 -0.0000
vn 0.7840 0.6207 -0.0000
vn -1.0000 0.0042 -0.0000
vn 0.7630 -0.6464 -0.0000
vn 0.7531 -0.6579 -0.0000
vn 0.7561 -0.6545 -0.0000
vn 0.7571 -0.6533 -0.0000
vn 0.7560 -0.6546 -0.0000
s 0
usemtl Material.001
f 1//1 22//1 3//1
f 13//2 51//2 44//2
f 14//2 50//2 51//2
f 59//2 44//2 51//2
f 10//2 51//2 17//2
f 50//2 48//2 51//2
f 9//2 10//2 17//2
f 8//2 9//2 17//2
f 18//1 19//1 21//1
f 2//1 22//1 21//1
f 3//1 22//1 2//1
f 24//1 22//1 1//1
f 35//1 37//1 22//1
f 27//1 5//1 4//1
f 29//1 31//1 27//1
f 6//1 22//1 24//1
f 18//1 21//1 7//1
f 33//3 23//3 25//3
f 33//3 25//3 35//3
f 35//1 4//1 33//1
f 7//4 36//4 38//4
f 4//1 35//1 22//1
f 6//1 4//1 22//1
f 26//1 30//1 29//1
f 28//1 30//1 26//1
f 30//1 31//1 29//1
f 31//1 5//1 27//1
f 5//1 33//1 4//1
f 37//1 39//1 22//1
f 40//1 41//1 22//1
f 40//1 22//1 39//1
f 20//1 22//1 42//1
f 15//1 20//1 42//1
f 42//1 22//1 41//1
f 23//5 33//5 5//5
f 7//1 22//1 36//1
f 35//6 25//6 44//6
f 35//6 44//6 37//6
f 7//1 21//1 22//1
f 49//1 36//1 22//1
f 46//7 32//7 41//7
f 46//7 41//7 40//7
f 17//8 21//8 19//8
f 17//8 19//8 8//8
f 16//9 48//9 3//9
f 16//9 3//9 2//9
f 38//10 36//10 43//10
f 48//11 50//11 1//11
f 48//12 1//12 3//12
f 47//1 36//1 49//1
f 36//10 47//10 43//10
f 50//13 14//13 1//13
f 48//2 16//2 51//2
f 16//2 17//2 51//2
f 13//2 14//2 51//2
f 47//14 49//14 45//14
f 47//14 45//14 43//14
f 17//15 16//15 2//15
f 17//15 2//15 21//15
f 46//2 59//2 51//2
f 14//13 24//13 1//13
f 10//2 38//2 51//2
f 44//2 25//2 13//2
f 13//16 34//16 4//16
f 13//16 4//16 6//16
f 51//17 45//17 49//17
f 34//18 12//18 4//18
f 56//19 20//19 15//19
f 56//19 15//19 57//19
f 14//20 13//20 6//20
f 14//20 6//20 24//20
f 53//2 54//2 55//2
f 25//2 23//2 13//2
f 34//2 13//2 23//2
f 56//2 58//2 51//2
f 57//2 58//2 56//2
f 58//2 32//2 51//2
f 32//2 46//2 51//2
f 12//2 34//2 52//2
f 52//2 60//2 12//2
f 11//2 12//2 60//2
f 52//2 34//2 23//2
f 60//2 53//2 11//2
f 55//2 11//2 53//2
f 51//17 49//17 22//17
f 12//18 27//18 4//18
f 43//2 45//2 38//2
f 45//2 51//2 38//2
f 12//21 11//21 29//21
f 12//21 29//21 27//21
f 51//22 22//22 20//22
f 51//22 20//22 56//22
f 38//4 10//4 7//4
f 26//23 29//23 55//23
f 11//23 55//23 29//23
f 42//24 41//24 58//24
f 32//24 58//24 41//24
f 9//25 18//25 7//25
f 9//25 7//25 10//25
f 39//26 59//26 46//26
f 39//26 46//26 40//26
f 55//27 54//27 28//27
f 55//28 28//28 26//28
f 44//3 59//3 39//3
f 44//3 39//3 37//3
f 19//29 18//29 9//29
f 19//29 9//29 8//29
f 30//30 28//30 54//30
f 30//30 54//30 53//30
f 58//31 57//31 15//31
f 58//31 15//31 42//31
f 52//32 23//32 5//32
f 60//33 31//33 30//33
f 60//33 30//33 53//33
f 60//34 52//34 5//34
f 60//34 5//34 31//34
